<?xml version="1.0"?>
<svg id="Lager_1" xmlns="http://www.w3.org/2000/svg" version="1.1" viewBox="0 0 207.75 58.67">
  
  <defs>
    
  </defs>
  <g>
    <path fill="#00456f" d="M75.37,21.28l-10.81-.03c-1.41.03-2.12.75-2.13,2.16,0,1.43.71,2.15,2.13,2.15h3.21v10.71c-.01,1.38.7,2.07,2.12,2.07,1.42-.02,2.13-.72,2.15-2.12v-10.66s3.18,0,3.18,0c1.44-.03,2.16-.77,2.16-2.21,0-1.36-.68-2.05-2-2.07Z"></path>
    <path fill="#00456f" d="M106.43,25.56h4.26c1.42,0,2.14-.72,2.14-2.16,0-1.39-.72-2.09-2.13-2.11h-4.29s-.03-.01-.03-.01c-5.67,0-8.5,2.84-8.5,8.53,0,5.7,2.86,8.54,8.55,8.54h4.27c1.41,0,2.11-.72,2.11-2.15s-.71-2.08-2.14-2.11h-4.25c-2.85-.02-4.27-1.44-4.27-4.27s1.42-4.29,4.26-4.26Z"></path>
    <path fill="#00456f" d="M128.52,21.23c-1.43,0-2.15.72-2.15,2.15v4.26l-6.38.03v-4.28c0-1.42-.71-2.14-2.14-2.15-1.42.02-2.14.74-2.14,2.16v12.81c0,1.4.71,2.11,2.12,2.12,1.43-.02,2.15-.73,2.15-2.13v-4.27s6.39-.02,6.39-.02v4.31c-.01,1.4.69,2.11,2.12,2.11h.03c1.41,0,2.12-.71,2.12-2.13v-12.83c0-1.43-.71-2.15-2.12-2.15Z"></path>
    <path fill="#00456f" d="M146.29,21.28l-10.81-.03c-1.41.03-2.12.75-2.13,2.16,0,1.43.71,2.15,2.13,2.15h3.21v10.71c-.01,1.38.7,2.07,2.12,2.07,1.42-.02,2.13-.72,2.15-2.12l-.02-10.66h3.19c1.44-.03,2.16-.77,2.16-2.21,0-1.36-.68-2.05-2-2.07Z"></path>
    <path fill="#00456f" d="M93.02,21.28l-10.81-.03c-1.41.03-2.12.75-2.13,2.16,0,1.43.71,2.15,2.13,2.15h10.65c1.44-.03,2.16-.77,2.16-2.21,0-1.36-.67-2.05-2-2.07Z"></path>
    <path fill="#00456f" d="M93.02,27.66l-10.81-.03c-1.41.03-2.12.75-2.13,2.16,0,1.43.71,2.15,2.13,2.15h10.65c1.44-.03,2.16-.77,2.16-2.22,0-1.36-.67-2.05-2-2.07Z"></path>
    <path fill="#00456f" d="M93.02,34.06l-10.81-.03c-1.41.03-2.12.75-2.13,2.16,0,1.44.71,2.15,2.13,2.15h10.65c1.44-.03,2.16-.77,2.16-2.22,0-1.36-.67-2.05-2-2.07Z"></path>
    <path fill="#00456f" d="M158.54,22.33c-.19-.34-.45-.61-.79-.8-.33-.2-.69-.29-1.06-.29s-.72.1-1.06.29c-.34.19-.61.46-.79.8-.19.34-1.35,2.64-3.47,6.92-2.13,4.27-3.2,6.6-3.2,6.97s.1.73.29,1.07c.19.35.45.61.79.79.34.18.69.27,1.06.27h12.79c.36,0,.71-.09,1.05-.27.34-.18.61-.45.8-.79.19-.34.29-.7.29-1.07s-1.07-2.7-3.21-6.97c-2.14-4.28-3.31-6.58-3.49-6.92ZM153.75,34.06l2.93-6.02,2.94,6.02h-5.87Z"></path>
    <path fill="#00456f" d="M180.65,21.29c-1.18.03-1.79.65-1.81,1.87v7.17l-6.39-8.15c-.47-.52-1.08-.82-1.85-.88-1.62.01-2.43.63-2.43,1.85v13.32c0,1.26.81,1.88,2.43,1.88,1.23,0,1.85-.63,1.85-1.85v-7.15l6.42,8.13c.46.57,1.06.87,1.79.88,1.62-.02,2.44-.64,2.44-1.85v-13.28c-.03-1.25-.83-1.89-2.44-1.92Z"></path>
    <path fill="#00456f" d="M201.96,23.38v-.09c0-.68-.17-1.19-.53-1.52-.37-.36-.9-.54-1.6-.54s-1.25.17-1.6.52-1.25,1.38-2.66,3.09c-.76.92-2.91,3.5-4.8,5.76v-7.21c0-1.42-.71-2.14-2.14-2.15-1.42.02-2.13.74-2.13,2.16v12.81c0,1.4.71,2.11,2.12,2.12.77,0,1.32-.23,1.67-.64l3.93-4.55c.37.44.8.96,1.31,1.57,1.39,1.68,2.27,2.7,2.64,3.07.36.37.91.55,1.64.55h.06c.67,0,1.19-.17,1.57-.52.35-.33.53-.81.53-1.44v-.17c0-.05,0-.11,0-.14,0-.65-.38-1.32-1.12-2.02l-3.81-4.14,3.81-4.4c.76-.66,1.13-1.36,1.13-2.12Z"></path>
  </g>
  <g>
    <path fill="#469cd2" d="M65.6,49.17l-.32-1.41h-1.45l-.32,1.41h-1.04l1.38-5.59h1.41l1.38,5.59h-1.04ZM65.09,46.84l-.3-1.3c-.02-.08-.06-.28-.12-.59-.06-.32-.1-.53-.11-.63-.03.22-.07.46-.12.72-.05.26-.18.86-.4,1.8h1.05Z"></path>
    <path fill="#469cd2" d="M71.85,46.33c0,.92-.19,1.62-.56,2.11-.37.49-.91.73-1.62.73h-1.36v-5.57h1.49c.65,0,1.15.24,1.51.72.36.48.54,1.15.54,2.01ZM70.79,46.36c0-1.25-.34-1.87-1.03-1.87h-.41v3.77h.34c.38,0,.66-.16.84-.47.18-.32.27-.79.27-1.43Z"></path>
    <path fill="#469cd2" d="M76.23,43.6h1.04l-1.31,5.57h-1.32l-1.3-5.57h1.04l.73,3.4c.07.29.13.71.19,1.25.05-.46.12-.88.2-1.25l.72-3.4Z"></path>
    <path fill="#469cd2" d="M81.47,49.17l-.32-1.41h-1.45l-.32,1.41h-1.04l1.38-5.59h1.41l1.38,5.59h-1.04ZM80.95,46.84l-.3-1.3c-.02-.08-.06-.28-.12-.59-.06-.32-.1-.53-.11-.63-.03.22-.07.46-.12.72-.05.26-.18.86-.4,1.8h1.05Z"></path>
    <path fill="#469cd2" d="M88.07,49.17h-1.26l-1.72-4.03h-.05c.06.31.1.64.1.99v3.04h-.96v-5.57h1.27l1.71,3.99h.04c-.05-.27-.07-.58-.07-.95v-3.04h.95v5.57Z"></path>
    <path fill="#469cd2" d="M92.07,44.42c-.3,0-.53.18-.7.52-.17.35-.26.83-.26,1.45,0,1.29.34,1.93,1.01,1.93.29,0,.6-.09.93-.28v.92c-.27.18-.62.27-1.04.27-.63,0-1.11-.25-1.45-.75-.34-.5-.51-1.2-.51-2.1s.17-1.61.52-2.11c.35-.51.83-.76,1.45-.76.2,0,.4.03.58.09.19.05.39.15.6.29l-.34.84c-.11-.08-.24-.15-.37-.22-.13-.07-.27-.1-.42-.1Z"></path>
    <path fill="#469cd2" d="M97.52,49.17h-2.51v-5.57h2.51v.89h-1.47v1.33h1.37v.9h-1.37v1.54h1.47v.91Z"></path>
    <path fill="#469cd2" d="M103.04,46.33c0,.92-.19,1.62-.56,2.11-.37.49-.91.73-1.62.73h-1.36v-5.57h1.49c.65,0,1.15.24,1.51.72.36.48.54,1.15.54,2.01ZM101.98,46.36c0-1.25-.34-1.87-1.03-1.87h-.41v3.77h.33c.38,0,.66-.16.84-.47.18-.32.27-.79.27-1.43Z"></path>
    <path fill="#469cd2" d="M110.63,49.17h-2.51v-5.57h2.51v.89h-1.47v1.33h1.37v.9h-1.37v1.54h1.47v.91Z"></path>
    <path fill="#469cd2" d="M116.52,49.17h-1.27l-1.72-4.03h-.05c.06.31.1.64.1.99v3.04h-.96v-5.57h1.27l1.71,3.99h.04c-.05-.27-.07-.58-.07-.95v-3.04h.95v5.57Z"></path>
    <path fill="#469cd2" d="M120.35,46.08h1.7v2.86c-.48.21-1,.31-1.54.31-.65,0-1.15-.25-1.5-.74-.35-.49-.52-1.2-.52-2.13s.2-1.59.6-2.1c.4-.51.96-.76,1.68-.76.45,0,.87.11,1.27.34l-.33.85c-.31-.18-.61-.28-.88-.28-.39,0-.71.18-.94.53-.23.35-.34.83-.34,1.44s.08,1.1.25,1.44c.17.33.41.5.72.5.17,0,.34-.02.51-.06v-1.28h-.69v-.91Z"></path>
    <path fill="#469cd2" d="M124.26,49.17v-5.57h.98v5.57h-.98Z"></path>
    <path fill="#469cd2" d="M131.49,49.17h-1.26l-1.72-4.03h-.05c.06.31.09.64.09.99v3.04h-.96v-5.57h1.27l1.71,3.99h.04c-.05-.27-.07-.58-.07-.95v-3.04h.95v5.57Z"></path>
    <path fill="#469cd2" d="M136.15,49.17h-2.51v-5.57h2.51v.89h-1.47v1.33h1.37v.9h-1.37v1.54h1.47v.91Z"></path>
    <path fill="#469cd2" d="M140.64,49.17h-2.51v-5.57h2.51v.89h-1.47v1.33h1.37v.9h-1.37v1.54h1.47v.91Z"></path>
    <path fill="#469cd2" d="M143.66,47v2.17h-1.04v-5.57h1.36c.57,0,1,.14,1.27.41.27.27.41.69.41,1.24,0,.7-.24,1.2-.71,1.47l1.07,2.44h-1.11l-.88-2.17h-.37ZM143.66,46.11h.27c.24,0,.42-.07.53-.21.11-.14.16-.34.16-.62s-.06-.49-.17-.61c-.11-.12-.29-.18-.52-.18h-.26v1.62Z"></path>
    <path fill="#469cd2" d="M147.88,49.17v-5.57h.97v5.57h-.97Z"></path>
    <path fill="#469cd2" d="M155.11,49.17h-1.26l-1.72-4.03h-.05c.06.31.1.64.1.99v3.04h-.96v-5.57h1.27l1.71,3.99h.04c-.05-.27-.07-.58-.07-.95v-3.04h.95v5.57Z"></path>
    <path fill="#469cd2" d="M158.95,46.08h1.7v2.86c-.48.21-1,.31-1.54.31-.65,0-1.15-.25-1.5-.74-.35-.49-.52-1.2-.52-2.13s.2-1.59.6-2.1c.4-.51.96-.76,1.68-.76.44,0,.87.11,1.27.34l-.33.85c-.31-.18-.61-.28-.88-.28-.39,0-.71.18-.93.53-.23.35-.34.83-.34,1.44s.08,1.1.25,1.44c.17.33.41.5.73.5.17,0,.34-.02.51-.06v-1.28h-.69v-.91Z"></path>
    <path fill="#469cd2" d="M168.4,49.17l-.32-1.41h-1.45l-.32,1.41h-1.04l1.38-5.59h1.41l1.38,5.59h-1.04ZM167.89,46.84l-.3-1.3c-.02-.08-.06-.28-.12-.59-.06-.32-.1-.53-.11-.63-.03.22-.07.46-.13.72-.05.26-.18.86-.4,1.8h1.05Z"></path>
    <path fill="#469cd2" d="M171.11,49.17v-5.57h1.04v4.66h1.44v.91h-2.47Z"></path>
    <path fill="#469cd2" d="M175.41,49.17v-5.57h1.04v4.66h1.44v.91h-2.47Z"></path>
    <path fill="#469cd2" d="M179.91,49.17v-5.57h.97v5.57h-.97Z"></path>
    <path fill="#469cd2" d="M185.86,49.17l-.32-1.41h-1.45l-.32,1.41h-1.04l1.38-5.59h1.41l1.38,5.59h-1.04ZM185.35,46.84l-.3-1.3c-.02-.08-.06-.28-.12-.59-.06-.32-.1-.53-.11-.63-.03.22-.08.46-.13.72-.05.26-.18.86-.4,1.8h1.05Z"></path>
    <path fill="#469cd2" d="M192.47,49.17h-1.27l-1.72-4.03h-.05c.06.31.09.64.09.99v3.04h-.96v-5.57h1.27l1.71,3.99h.04c-.05-.27-.07-.58-.07-.95v-3.04h.95v5.57Z"></path>
    <path fill="#469cd2" d="M196.47,44.42c-.3,0-.53.18-.7.52-.17.35-.26.83-.26,1.45,0,1.29.34,1.93,1.01,1.93.29,0,.6-.09.93-.28v.92c-.27.18-.62.27-1.04.27-.63,0-1.11-.25-1.45-.75-.34-.5-.5-1.2-.5-2.1s.17-1.61.52-2.11c.35-.51.83-.76,1.45-.76.2,0,.4.03.58.09.19.05.39.15.6.29l-.34.84c-.11-.08-.24-.15-.37-.22-.13-.07-.27-.1-.42-.1Z"></path>
    <path fill="#469cd2" d="M201.91,49.17h-2.51v-5.57h2.51v.89h-1.47v1.33h1.37v.9h-1.37v1.54h1.47v.91Z"></path>
  </g>
  <g>
    <path fill="#00456f" d="M27.76,12.2c0-2.35,1.9-4.25,4.25-4.25,2.35,0,4.25,1.9,4.24,4.25,0,2.34-1.9,4.25-4.25,4.25-2.34,0-4.24-1.9-4.24-4.25Z"></path>
    <path fill="#469cd2" d="M58.48,9.59c-.46-1.05-1.54-1.35-2.74-.77l-23.75,11.57v6.81l16.6-8.09-16.6,27.18h0s0,8.23,0,8.23c.76-.37,1.52-1.07,2.1-2.02L57.83,13.61c.85-1.39,1.1-2.98.64-4.03Z"></path>
    <path fill="#00456f" d="M31.99,46.3L15.4,19.11l16.6,8.09v-6.81L8.26,8.82c-1.2-.58-2.28-.28-2.73.77-.46,1.05-.21,2.64.64,4.02l23.74,38.89c.58.95,1.34,1.65,2.09,2.02v-8.22Z"></path>
    <path fill="#469cd2" d="M6.31,38.89l23.6,15.65c.58.39,1.34.35,2.09-.02v-8.22l-16.59-11.01,16.59-8.09v-6.81l-23.74,11.57s0,0,0,0c-1.64.8-2.96,2.97-2.96,4.85,0,1.02.39,1.75,1.02,2.07Z"></path>
    <path fill="#00456f" d="M57.69,38.89l-23.6,15.65c-.58.39-1.34.35-2.09-.02v-8.22l16.59-11.01-16.59-8.09v-6.81l23.74,11.57s0,0,0,0c1.64.8,2.96,2.97,2.96,4.85,0,1.02-.39,1.75-1.02,2.07Z"></path>
  </g>
</svg>